<?xml version="1.0" encoding="UTF-8"?><svg id="Layer_2" xmlns="http://www.w3.org/2000/svg" viewBox="0 0 1289.7 240.55"><defs><style>.cls-1{stroke-width:0px;}</style></defs><g id="Layer_2-2"><path class="cls-1" d="M97.08,164.83c-5.77-5.77-8.65-13.65-8.65-23.65h16.59c0,5.39,1.42,9.64,4.25,12.76,2.83,3.13,6.75,4.69,11.76,4.69h16.01c4.71,0,8.51-1.03,11.39-3.1,2.88-2.07,4.33-4.78,4.33-8.15v-6.35c0-2.6-1.01-4.76-3.03-6.49-2.02-1.73-4.9-2.93-8.65-3.61l-26.25-4.47c-8.17-1.35-14.45-4.04-18.82-8.08-4.38-4.04-6.56-9.18-6.56-15.43v-7.93c0-4.9,1.32-9.23,3.97-12.98,2.64-3.75,6.37-6.66,11.18-8.73,4.81-2.07,10.38-3.1,16.73-3.1h16.3c5.96,0,11.23,1.23,15.79,3.68,4.57,2.45,8.1,5.94,10.6,10.46,2.5,4.52,3.75,9.71,3.75,15.58h-16.44c0-4.42-1.28-8-3.82-10.75-2.55-2.74-5.84-4.11-9.88-4.11h-16.3c-4.52,0-8.15.99-10.89,2.96-2.74,1.97-4.11,4.64-4.11,8v5.19c0,2.69.96,4.93,2.88,6.71,1.92,1.78,4.71,2.96,8.37,3.53l26.25,4.62c8.27,1.44,14.64,4.11,19.11,8s6.71,8.87,6.71,14.93v9.38c0,4.9-1.35,9.25-4.04,13.05-2.69,3.8-6.49,6.76-11.39,8.87-4.9,2.11-10.53,3.17-16.88,3.17h-16.59c-10,0-17.89-2.88-23.65-8.65Z"/><path class="cls-1" d="M346.92,71.36h51.78c8.46,0,15.29,2.38,20.48,7.14,5.19,4.76,7.79,11.03,7.79,18.82v13.85c0,8.17-2.72,14.74-8.15,19.69-5.43,4.95-12.57,7.43-21.42,7.43h-33.61v34.04h-16.88v-100.96ZM397.11,123.58c3.94,0,7.09-1.2,9.45-3.61,2.36-2.4,3.53-5.53,3.53-9.38v-12.84c0-3.56-1.06-6.39-3.17-8.51-2.12-2.11-4.95-3.17-8.51-3.17h-34.62v37.5h33.32Z"/><path class="cls-1" d="M617.81,168.79c-5.58-3.12-9.9-7.55-12.98-13.27-3.08-5.72-4.62-12.33-4.62-19.83v-27.69c0-7.5,1.54-14.11,4.62-19.83,3.08-5.72,7.4-10.14,12.98-13.27,5.58-3.12,12.02-4.69,19.33-4.69h15.29c7.31,0,13.77,1.56,19.4,4.69,5.63,3.13,9.98,7.55,13.05,13.27,3.08,5.72,4.62,12.33,4.62,19.83v27.69c0,7.5-1.54,14.11-4.62,19.83-3.08,5.72-7.43,10.15-13.05,13.27-5.62,3.13-12.09,4.69-19.4,4.69h-15.29c-7.31,0-13.75-1.56-19.33-4.69ZM652.42,158.63c5.96,0,10.82-2.16,14.57-6.49,3.75-4.33,5.62-10,5.62-17.02v-26.54c0-7.02-1.85-12.69-5.55-17.02-3.7-4.33-8.58-6.49-14.64-6.49h-15.14c-6.06,0-10.94,2.16-14.64,6.49-3.7,4.33-5.55,10-5.55,17.02v26.54c0,7.02,1.85,12.69,5.55,17.02,3.7,4.33,8.58,6.49,14.64,6.49h15.14Z"/><path class="cls-1" d="M875.72,168.79c-5.58-3.12-9.91-7.55-12.98-13.27-3.08-5.72-4.62-12.33-4.62-19.83v-27.69c0-7.5,1.54-14.11,4.62-19.83,3.08-5.72,7.4-10.14,12.98-13.27,5.58-3.12,12.02-4.69,19.33-4.69h15.29c7.31,0,13.77,1.56,19.4,4.69,5.62,3.13,9.97,7.55,13.05,13.27,3.08,5.72,4.62,12.33,4.62,19.83v27.69c0,7.5-1.54,14.11-4.62,19.83-3.08,5.72-7.43,10.15-13.05,13.27-5.62,3.13-12.09,4.69-19.4,4.69h-15.29c-7.31,0-13.75-1.56-19.33-4.69ZM910.33,158.63c5.96,0,10.82-2.16,14.57-6.49,3.75-4.33,5.62-10,5.62-17.02v-26.54c0-7.02-1.85-12.69-5.55-17.02-3.7-4.33-8.58-6.49-14.64-6.49h-15.14c-6.06,0-10.94,2.16-14.64,6.49-3.7,4.33-5.55,10-5.55,17.02v26.54c0,7.02,1.85,12.69,5.55,17.02,3.7,4.33,8.58,6.49,14.64,6.49h15.14Z"/><path class="cls-1" d="M1289.7,8.07V0H0v8.07h12.62v12.71H0v199h12.62v12.71H0v8.07h1289.7v-8.07h-12.62v-12.71h12.62V20.78h-12.62v-12.71h12.62ZM1254.68,8.07h12.62v12.71h-12.62v-12.71ZM1232.27,8.07h12.62v12.71h-12.62v-12.71ZM1209.87,8.07h12.62v12.71h-12.62v-12.71ZM1187.46,8.07h12.62v12.71h-12.62v-12.71ZM1165.06,8.07h12.62v12.71h-12.62v-12.71ZM1142.65,8.07h12.62v12.71h-12.62v-12.71ZM1120.25,8.07h12.62v12.71h-12.62v-12.71ZM1097.84,8.07h12.62v12.71h-12.62v-12.71ZM1075.44,8.07h12.62v12.71h-12.62v-12.71ZM1053.03,8.07h12.62v12.71h-12.62v-12.71ZM985.82,8.07h12.62v12.71h-12.62v-12.71ZM1018.01,29.26v182.03h-230.5V29.26h230.5ZM963.41,8.07h12.62v12.71h-12.62v-12.71ZM941.01,8.07h12.62v12.71h-12.62v-12.71ZM918.6,8.07h12.62v12.71h-12.62v-12.71ZM896.2,8.07h12.62v12.71h-12.62v-12.71ZM873.79,8.07h12.62v12.71h-12.62v-12.71ZM851.39,8.07h12.62v12.71h-12.62v-12.71ZM828.98,8.07h12.62v12.71h-12.62v-12.71ZM806.58,8.07h12.62v12.71h-12.62v-12.71ZM784.17,8.07h12.62v12.71h-12.62v-12.71ZM739.36,8.07h12.62v12.71h-12.62v-12.71ZM716.96,8.07h12.62v12.71h-12.62v-12.71ZM694.55,8.07h12.62v12.71h-12.62v-12.71ZM672.15,8.07h12.62v12.71h-12.62v-12.71ZM649.74,8.07h12.62v12.71h-12.62v-12.71ZM627.34,8.07h12.62v12.71h-12.62v-12.71ZM604.93,8.07h12.62v12.71h-12.62v-12.71ZM582.53,8.07h12.62v12.71h-12.62v-12.71ZM560.12,8.07h12.62v12.71h-12.62v-12.71ZM537.72,8.07h12.62v12.71h-12.62v-12.71ZM470.5,8.07h12.62v12.71h-12.62v-12.71ZM502.19,29.26v182.03h-230.5V29.26h230.5ZM448.1,8.07h12.62v12.71h-12.62v-12.71ZM425.69,8.07h12.62v12.71h-12.62v-12.71ZM403.29,8.07h12.62v12.71h-12.62v-12.71ZM380.88,8.07h12.62v12.71h-12.62v-12.71ZM358.48,8.07h12.62v12.71h-12.62v-12.71ZM336.07,8.07h12.62v12.71h-12.62v-12.71ZM313.67,8.07h12.62v12.71h-12.62v-12.71ZM291.26,8.07h12.62v12.71h-12.62v-12.71ZM268.86,8.07h12.62v12.71h-12.62v-12.71ZM224.05,8.07h12.62v12.71h-12.62v-12.71ZM201.64,8.07h12.62v12.71h-12.62v-12.71ZM179.24,8.07h12.62v12.71h-12.62v-12.71ZM156.83,8.07h12.62v12.71h-12.62v-12.71ZM134.43,8.07h12.62v12.71h-12.62v-12.71ZM112.02,8.07h12.62v12.71h-12.62v-12.71ZM89.62,8.07h12.62v12.71h-12.62v-12.71ZM67.21,8.07h12.62v12.71h-12.62v-12.71ZM44.81,8.07h12.62v12.71h-12.62v-12.71ZM22.4,8.07h12.62v12.71h-12.62v-12.71ZM35.03,232.48h-12.62v-12.71h12.62v12.71ZM57.43,232.48h-12.62v-12.71h12.62v12.71ZM79.84,232.48h-12.62v-12.71h12.62v12.71ZM102.24,232.48h-12.62v-12.71h12.62v12.71ZM124.65,232.48h-12.62v-12.71h12.62v12.71ZM147.05,232.48h-12.62v-12.71h12.62v12.71ZM169.46,232.48h-12.62v-12.71h12.62v12.71ZM191.86,232.48h-12.62v-12.71h12.62v12.71ZM214.27,232.48h-12.62v-12.71h12.62v12.71ZM236.67,232.48h-12.62v-12.71h12.62v12.71ZM244.28,211.29H13.78V29.26h230.5v182.03ZM259.08,232.48h-12.62v-12.71h12.62v12.71ZM259.08,20.78h-12.62v-12.71h12.62v12.71ZM281.48,232.48h-12.62v-12.71h12.62v12.71ZM303.89,232.48h-12.62v-12.71h12.62v12.71ZM326.29,232.48h-12.62v-12.71h12.62v12.71ZM348.7,232.48h-12.62v-12.71h12.62v12.71ZM371.1,232.48h-12.62v-12.71h12.62v12.71ZM393.5,232.48h-12.62v-12.71h12.62v12.71ZM415.91,232.48h-12.62v-12.71h12.62v12.71ZM438.31,232.48h-12.62v-12.71h12.62v12.71ZM460.72,232.48h-12.62v-12.71h12.62v12.71ZM483.12,232.48h-12.62v-12.71h12.62v12.71ZM505.53,232.48h-12.62v-12.71h12.62v12.71ZM505.53,20.78h-12.62v-12.71h12.62v12.71ZM527.93,232.48h-12.62v-12.71h12.62v12.71ZM527.93,20.78h-12.62v-12.71h12.62v12.71ZM550.34,232.48h-12.62v-12.71h12.62v12.71ZM572.74,232.48h-12.62v-12.71h12.62v12.71ZM595.15,232.48h-12.62v-12.71h12.62v12.71ZM617.55,232.48h-12.62v-12.71h12.62v12.71ZM639.96,232.48h-12.62v-12.71h12.62v12.71ZM662.36,232.48h-12.62v-12.71h12.62v12.71ZM684.77,232.48h-12.62v-12.71h12.62v12.71ZM707.17,232.48h-12.62v-12.71h12.62v12.71ZM729.58,232.48h-12.62v-12.71h12.62v12.71ZM751.98,232.48h-12.62v-12.71h12.62v12.71ZM760.1,211.29h-230.5V29.26h230.5v182.03ZM774.39,232.48h-12.62v-12.71h12.62v12.71ZM774.39,20.78h-12.62v-12.71h12.62v12.71ZM796.79,232.48h-12.62v-12.71h12.62v12.71ZM819.2,232.48h-12.62v-12.71h12.62v12.71ZM841.6,232.48h-12.62v-12.71h12.62v12.71ZM864.01,232.48h-12.62v-12.71h12.62v12.71ZM886.41,232.48h-12.62v-12.71h12.62v12.71ZM908.82,232.48h-12.62v-12.71h12.62v12.71ZM931.22,232.48h-12.62v-12.71h12.62v12.71ZM953.63,232.48h-12.62v-12.71h12.62v12.71ZM976.03,232.48h-12.62v-12.71h12.62v12.71ZM998.44,232.48h-12.62v-12.71h12.62v12.71ZM1020.84,232.48h-12.62v-12.71h12.62v12.71ZM1020.84,20.78h-12.62v-12.71h12.62v12.71ZM1043.25,232.48h-12.62v-12.71h12.62v12.71ZM1043.25,20.78h-12.62v-12.71h12.62v12.71ZM1065.65,232.48h-12.62v-12.71h12.62v12.71ZM1088.06,232.48h-12.62v-12.71h12.62v12.71ZM1110.46,232.48h-12.62v-12.71h12.62v12.71ZM1132.87,232.48h-12.62v-12.71h12.62v12.71ZM1155.27,232.48h-12.62v-12.71h12.62v12.71ZM1177.68,232.48h-12.62v-12.71h12.62v12.71ZM1200.08,232.48h-12.62v-12.71h12.62v12.71ZM1222.49,232.48h-12.62v-12.71h12.62v12.71ZM1244.89,232.48h-12.62v-12.71h12.62v12.71ZM1267.3,232.48h-12.62v-12.71h12.62v12.71ZM1275.92,211.29h-230.5V29.26h230.5v182.03Z"/><path class="cls-1" d="M1128.15,169.01c-2.21-2.21-3.32-5.14-3.32-8.8v-88.85h16.88v86.25h54.81v14.71h-59.28c-3.85,0-6.88-1.1-9.09-3.32Z"/></g></svg>