<?xml version="1.0" encoding="UTF-8"?><svg id="Layer_2" xmlns="http://www.w3.org/2000/svg" viewBox="0 0 970.45 210.51"><defs><style>.cls-1,.cls-2,.cls-3{stroke-width:0px;fill:#1a1a1a;}</style></defs><g id="Layer_2-2"><path class="cls-1" d="M51.45,139.61c11.11-5.69,7.79-11.55-9.96-17.58-17.75-6.03-29.1-12.96-34.05-20.79-4.96-7.83-7.43-16.09-7.43-24.78,0-20.64,19.28-38.59,57.83-53.84,9.92-3.92,21,1.96,23.26,12.38h0c2.01,9.23-3.78,18.34-12.97,20.49-13.52,3.17-22.98,7.65-28.38,13.44-7.4,7.96,1.09,14.92,25.47,20.88,24.38,5.97,36.58,19.26,36.58,39.88s-8.08,34.54-24.23,41.76c-12.92,5.78-29,9.83-48.23,12.16-8.55,1.04-16.55-4.45-18.73-12.78l-1.12-4.27c-2.85-10.87,5.29-21.51,16.53-21.64,10.27-.12,18.75-1.89,25.44-5.32Z"/><path class="cls-1" d="M185.59,116.66c-10.41,5.84-19.57,9.72-27.47,11.64-10.49,2.55-16.47,13.65-12.97,23.87,1,2.92,2.15,6.04,3.44,9.37,3.45,8.89-.39,18.95-8.92,23.23h0c-11.1,5.58-24.47-1.17-26.52-13.42-8.25-49.34-10.46-88.07-6.63-116.19,4.39-32.27,27.67-47.95,69.84-47.03.89.02,1.78.1,2.66.25,23.24,4.06,35.05,20.23,35.44,48.52.4,28.82-9.22,48.74-28.87,59.75ZM161.18,91.33c13.89-6,20.59-15.82,20.1-29.46-.49-13.64-7.33-19.4-20.51-17.26-13.19,2.14-20.24,7.42-21.16,15.83-.92,8.41-.89,18.71.09,30.89.43,6,7.59,6,21.48,0Z"/><path class="cls-1" d="M313.08,52.18c10.95,13.62,16.43,29.72,16.43,48.33s-5.48,34.62-16.43,48.23c-10.95,13.62-24.51,20.42-40.66,20.42s-29.62-6.81-40.57-20.42c-10.95-13.62-16.43-29.69-16.43-48.23s5.48-34.71,16.43-48.33c10.95-13.61,24.48-20.42,40.57-20.42s29.71,6.81,40.66,20.42ZM272.42,71.68c-6.67,0-12.64,2.71-17.9,8.12-5.26,5.42-7.89,12.5-7.89,21.25s2.63,15.83,7.89,21.25c5.26,5.42,11.23,8.12,17.9,8.12s12.71-2.71,17.94-8.12c5.23-5.42,7.85-12.5,7.85-21.25s-2.62-15.83-7.85-21.25c-5.23-5.42-11.21-8.12-17.94-8.12Z"/><path class="cls-1" d="M430.84,52.18c10.95,13.62,16.43,29.72,16.43,48.33s-5.48,34.62-16.43,48.23c-10.95,13.62-24.51,20.42-40.66,20.42s-29.62-6.81-40.57-20.42c-10.95-13.62-16.43-29.69-16.43-48.23s5.48-34.71,16.43-48.33c10.95-13.61,24.48-20.42,40.57-20.42s29.71,6.81,40.66,20.42ZM390.18,71.68c-6.67,0-12.64,2.71-17.9,8.12-5.26,5.42-7.89,12.5-7.89,21.25s2.63,15.83,7.89,21.25c5.26,5.42,11.23,8.12,17.9,8.12s12.71-2.71,17.94-8.12c5.23-5.42,7.85-12.5,7.85-21.25s-2.62-15.83-7.85-21.25c-5.23-5.42-11.21-8.12-17.94-8.12Z"/><path class="cls-1" d="M486.81,170.19c-.83.11-1.69.15-2.53.1-23.07-1.49-34.27-15.77-33.61-42.84.6-24.62,4.15-55.21,10.66-91.76,1.31-7.33,8.44-12.12,15.73-10.58l14.96,3.16c7.32,1.55,11.89,8.87,10.07,16.13-8.06,32.21-12.88,55.6-14.49,70.18-1.01,9.19,7.5,16.54,16.45,14.21h0c7.93-2.06,15.81,3.53,16.48,11.7l.96,11.63c.54,6.57-3.85,12.53-10.28,13.97s-14.34,2.76-24.39,4.09Z"/><path class="cls-1" d="M586.24,145.85c0,6.12-2.51,12.07-7.53,17.85-5.02,5.78-11.63,8.67-19.83,8.67s-14.96-2.89-19.92-8.67c-4.96-5.78-7.43-11.73-7.43-17.85s2.49-12.13,7.48-17.85c4.99-5.72,11.61-8.58,19.87-8.58s14.81,2.85,19.83,8.54c5.02,5.69,7.53,11.66,7.53,17.9Z"/><path class="cls-1" d="M666.86,111.42l.75,5.88c1.15,9.04-5.43,17.34-14.52,18.04-.74.06-1.47.13-2.17.2-9.83,1.1-16.37,10.8-13.64,20.3,1.54,5.36,3.65,10.91,6.31,16.67,3.83,8.25-.1,18.03-8.5,21.52l-4.23,1.76c-8.89,3.69-19.04-1.21-21.64-10.48-9.14-32.55-13.5-64.45-13.08-95.71,0-19.83,5.66-36.36,16.98-49.61,8.54-10,24.97-16.03,49.3-18.1,12.12-1.03,20.9,11.36,16,22.5l-2.68,6.09c-2.65,6.01-8.69,9.72-15.25,9.58-13.95-.29-23.06,4.84-27.34,15.41s4.28,23,16.15,22c.13-.01.25-.02.38-.03,8.54-.67,16.1,5.5,17.18,13.99Z"/><path class="cls-1" d="M705.23,62.98h0c8.47,1.3,14.43,8.94,13.74,17.48-2.56,31.39,1.82,60.26,13.12,86.62,3.62,8.43-.36,18.11-8.87,21.53l-4.5,1.81c-8.7,3.49-18.61-1.05-21.5-9.97-10.88-33.6-14.42-68-10.62-103.22.99-9.18,9.51-15.64,18.63-14.25ZM692.25,26.43c0-6.24,2.51-12.21,7.53-17.9,5.02-5.69,11.63-8.54,19.83-8.54s14.88,2.86,19.87,8.58c4.99,5.72,7.48,11.67,7.48,17.85s-2.49,12.07-7.48,17.85c-4.99,5.78-11.61,8.67-19.87,8.67s-14.81-2.89-19.83-8.67c-5.02-5.78-7.53-11.73-7.53-17.85Z"/><path class="cls-1" d="M776.28,180.19c-.82.11-1.66.15-2.49.1-23.08-1.48-34.29-15.76-33.63-42.84.6-24.65,4.16-55.28,10.69-91.89,1.29-7.26,8.35-12,15.57-10.47l15.22,3.22c7.25,1.53,11.77,8.78,9.97,15.97-8.11,32.4-12.95,55.9-14.54,70.49-.99,9.1,7.42,16.39,16.28,14.09.11-.03.23-.06.34-.09,7.85-2.04,15.65,3.5,16.31,11.58l.98,11.9c.53,6.51-3.81,12.4-10.18,13.83s-14.4,2.77-24.52,4.12Z"/><path class="cls-1" d="M956.04,103.53c.88,10.48.36,21.97-1.54,34.46-1.86,12.26-14.92,19.35-26.22,14.27h0c-8.19-3.68-12.6-12.67-10.55-21.41,4.27-18.21,5.14-31.17,2.6-38.88-3.18-9.67-8-8.83-14.46,2.52-6.46,11.35-14.58,17.03-24.37,17.03s-17.13-4.86-21.29-14.59c-4.16-9.73-7.31-8.95-9.45,2.34-1.87,9.87.53,32.18,7.21,66.93,1.75,9.11-3.42,18.14-12.16,21.22l-1.78.63c-11.3,3.99-23.39-3.52-24.85-15.41-5.18-42.14-4.92-74.02.78-95.63,6.7-25.39,16.32-40.17,28.87-44.33,8.09-2.68,15.89,1.25,23.4,11.81,6.63,9.32,19.98,10.81,28.23,2.88,6.68-6.43,12.99-9.64,18.92-9.64,10.49,0,18.88,6.76,25.15,20.28,6.27,13.52,10.11,28.7,11.52,45.53Z"/><path class="cls-3" d="M37.26,195.24c-8.73,0-16.37-5.92-18.59-14.4l-1.12-4.27c-1.51-5.77-.31-11.81,3.31-16.55,3.63-4.76,9.14-7.53,15.13-7.6,9.91-.12,18.17-1.83,24.55-5.1,3.48-1.78,5.42-3.6,5.32-4.98-.07-.92-1.35-4.28-15.01-8.92-18.36-6.24-29.84-13.3-35.1-21.61-5.14-8.12-7.74-16.82-7.74-25.85,0-21.44,19.88-40.19,59.09-55.7,2.29-.9,4.68-1.36,7.11-1.36,9.01,0,16.93,6.38,18.84,15.18,2.22,10.22-4.27,20.48-14.47,22.86-13.07,3.06-22.27,7.38-27.37,12.86-2.57,2.77-2.07,4.45-1.91,5,.74,2.47,5.15,7.38,26.39,12.57,25.28,6.19,38.1,20.26,38.1,41.82s-8.55,36.05-25.42,43.59c-13.05,5.83-29.47,9.98-48.8,12.32-.77.09-1.55.14-2.31.14Z"/><path class="cls-2" d="M74.2,30.89c7.85,0,15.1,5.39,16.89,13.61h0c2.01,9.23-3.78,18.34-12.97,20.49-13.52,3.17-22.98,7.65-28.38,13.44-7.4,7.96,1.09,14.92,25.47,20.88,24.38,5.97,36.58,19.26,36.58,39.88s-8.08,34.54-24.23,41.76c-12.92,5.78-29,9.83-48.23,12.16-.7.08-1.39.13-2.07.13-7.74,0-14.65-5.25-16.66-12.9l-1.12-4.27c-2.85-10.87,5.29-21.51,16.53-21.64,10.27-.12,18.75-1.89,25.44-5.32,11.11-5.69,7.79-11.55-9.96-17.58-17.75-6.03-29.1-12.96-34.05-20.79-4.96-7.83-7.43-16.09-7.43-24.78,0-20.64,19.28-38.59,57.83-53.84,2.1-.83,4.26-1.22,6.37-1.22M74.2,26.89h0c-2.68,0-5.32.51-7.84,1.5-19.65,7.78-34.67,16.42-44.63,25.7-10.44,9.72-15.73,20.44-15.73,31.87,0,9.42,2.71,18.48,8.05,26.92,5.51,8.71,17.33,16.05,36.15,22.44,11.41,3.88,13.34,6.6,13.62,7.13-.18.32-1.01,1.46-4.2,3.09-6.1,3.13-14.06,4.77-23.66,4.88-6.61.08-12.69,3.13-16.7,8.38-3.99,5.24-5.33,11.9-3.66,18.27l1.12,4.27c2.45,9.36,10.89,15.89,20.53,15.89.85,0,1.71-.05,2.55-.15,19.53-2.37,36.15-6.57,49.38-12.48,17.65-7.89,26.6-23.17,26.6-45.41,0-11.29-3.43-20.76-10.2-28.14-6.61-7.21-16.51-12.47-29.43-15.63-22.18-5.43-24.67-10.29-24.95-11.2-.28-.94.64-2.19,1.45-3.07,4.82-5.18,13.69-9.31,26.36-12.27,11.26-2.64,18.42-13.96,15.97-25.24-2.11-9.71-10.86-16.76-20.8-16.76h0Z"/><path class="cls-3" d="M141.38,198.25c-10.05,0-18.55-7.18-20.2-17.07-8.24-49.31-10.48-88.6-6.64-116.79,4.4-32.38,27.4-48.8,68.35-48.8,1.16,0,2.33.01,3.52.04,1.03.02,2.02.12,2.96.28,24.21,4.23,36.69,21.21,37.1,50.47.41,29.48-9.65,50.18-29.89,61.52-10.52,5.9-19.94,9.88-27.98,11.84-4.48,1.09-8.18,3.93-10.41,8-2.23,4.06-2.64,8.9-1.14,13.28.98,2.88,2.13,6,3.41,9.3,3.85,9.91-.4,20.98-9.88,25.75-2.9,1.46-5.99,2.19-9.19,2.19ZM175.78,55.67c-1.44,0-3.02.14-4.69.41-12.3,2-18.67,6.6-19.49,14.08-.9,8.25-.87,18.52.1,30.51.09,1.3.46,2.66,3.7,2.66s8.33-1.46,15-4.33c13.18-5.69,19.36-14.7,18.9-27.56-.39-10.75-4.68-15.76-13.5-15.76Z"/><path class="cls-2" d="M182.89,17.59c1.14,0,2.3.01,3.47.04.89.02,1.78.1,2.66.25,23.24,4.06,35.05,20.23,35.44,48.52.4,28.82-9.22,48.74-28.87,59.75-10.41,5.84-19.57,9.72-27.47,11.64-10.49,2.55-16.47,13.65-12.97,23.87,1,2.92,2.15,6.04,3.44,9.37,3.45,8.89-.39,18.95-8.92,23.23h0c-2.69,1.35-5.52,1.98-8.29,1.98-8.64,0-16.68-6.12-18.23-15.4-8.25-49.34-10.46-88.07-6.63-116.19,4.27-31.38,26.4-47.07,66.37-47.07M155.39,105.32c3.58,0,8.84-1.5,15.79-4.5,13.89-6,20.59-15.82,20.1-29.46-.42-11.79-5.59-17.69-15.5-17.69-1.56,0-3.23.15-5.01.44-13.19,2.14-20.24,7.42-21.16,15.83-.92,8.41-.89,18.71.09,30.89.21,3,2.11,4.5,5.69,4.5M182.89,13.59v4-4c-20.74,0-37.19,4.21-48.89,12.51-11.95,8.47-19.17,21.27-21.44,38.02-3.86,28.38-1.62,67.87,6.65,117.38,1.82,10.86,11.14,18.74,22.18,18.74,3.51,0,6.9-.81,10.08-2.41,10.41-5.23,15.08-17.38,10.85-28.26-1.27-3.27-2.41-6.37-3.38-9.22-1.32-3.85-.95-8.1,1.01-11.67,1.96-3.57,5.2-6.06,9.13-7.02,8.22-2,17.8-6.04,28.48-12.03,20.93-11.73,31.33-33.03,30.91-63.3-.21-14.93-3.55-26.92-9.92-35.65-6.51-8.91-16.21-14.55-28.83-16.76-1.03-.18-2.13-.28-3.26-.31-1.2-.03-2.39-.04-3.55-.04h0ZM153.79,101.08c-.03-.07-.08-.24-.1-.53-.96-11.9-.99-22.04-.11-30.17,1.05-9.59,13.67-11.64,17.82-12.32,1.57-.25,3.04-.38,4.37-.38,9.7,0,11.26,6.99,11.5,13.84.43,11.93-5.36,20.32-17.69,25.65-7.98,3.45-12.13,4.17-14.2,4.17-1.07,0-1.5-.19-1.6-.25h0Z"/><path class="cls-3" d="M282.42,180.66c-16.65,0-30.83-7.12-42.13-21.17-11.19-13.92-16.87-30.57-16.87-49.49s5.68-35.66,16.87-49.58c11.3-14.05,25.47-21.17,42.13-21.17s30.92,7.12,42.22,21.17c11.2,13.92,16.87,30.6,16.87,49.58s-5.68,35.57-16.87,49.49c-11.3,14.05-25.51,21.17-42.22,21.17ZM282.42,83.18c-6.16,0-11.55,2.46-16.46,7.52-4.86,5-7.33,11.68-7.33,19.85s2.4,14.78,7.33,19.86c4.92,5.06,10.3,7.52,16.46,7.52s11.62-2.46,16.51-7.51c4.9-5.08,7.29-11.57,7.29-19.86s-2.45-14.85-7.29-19.86c-4.88-5.06-10.28-7.51-16.51-7.51Z"/><path class="cls-2" d="M282.42,41.26c16.15,0,29.71,6.81,40.66,20.42,10.95,13.62,16.43,29.72,16.43,48.33s-5.48,34.62-16.43,48.23c-10.95,13.62-24.51,20.42-40.66,20.42s-29.62-6.81-40.57-20.42c-10.95-13.62-16.43-29.69-16.43-48.23s5.48-34.71,16.43-48.33c10.95-13.61,24.48-20.42,40.57-20.42M282.42,139.93c6.73,0,12.71-2.71,17.94-8.12,5.23-5.42,7.85-12.5,7.85-21.25s-2.62-15.83-7.85-21.25c-5.23-5.42-11.21-8.12-17.94-8.12s-12.64,2.71-17.9,8.12c-5.26,5.42-7.89,12.5-7.89,21.25s2.63,15.83,7.89,21.25c5.26,5.42,11.23,8.12,17.9,8.12M282.42,37.26c-17.29,0-31.99,7.37-43.69,21.92-11.49,14.28-17.31,31.38-17.31,50.83s5.82,36.46,17.31,50.74c11.7,14.54,26.4,21.91,43.69,21.91s32.08-7.37,43.78-21.91c11.49-14.28,17.31-31.35,17.31-50.74s-5.82-36.55-17.31-50.83c-11.7-14.54-26.43-21.92-43.78-21.92h0ZM282.42,135.93c-5.59,0-10.51-2.26-15.03-6.91-4.55-4.68-6.76-10.72-6.76-18.46s2.21-13.78,6.76-18.46c4.52-4.65,9.44-6.91,15.03-6.91s10.58,2.26,15.07,6.9c4.52,4.68,6.72,10.73,6.72,18.47s-2.2,13.79-6.72,18.47c-4.49,4.64-9.42,6.9-15.07,6.9h0Z"/><path class="cls-3" d="M400.18,180.66c-16.65,0-30.83-7.12-42.13-21.17-11.19-13.92-16.87-30.57-16.87-49.49s5.68-35.66,16.87-49.58c11.3-14.05,25.47-21.17,42.13-21.17s30.92,7.12,42.22,21.17c11.2,13.92,16.87,30.6,16.87,49.58s-5.68,35.57-16.87,49.49c-11.3,14.05-25.51,21.17-42.22,21.17ZM400.18,83.18c-6.16,0-11.55,2.46-16.46,7.52-4.86,5-7.33,11.68-7.33,19.85s2.4,14.78,7.33,19.86c4.92,5.06,10.3,7.52,16.46,7.52s11.62-2.46,16.51-7.51c4.9-5.08,7.29-11.57,7.29-19.86s-2.45-14.85-7.29-19.86c-4.88-5.06-10.28-7.51-16.51-7.51Z"/><path class="cls-2" d="M400.18,41.26c16.15,0,29.71,6.81,40.66,20.42,10.95,13.62,16.43,29.72,16.43,48.33s-5.48,34.62-16.43,48.23c-10.95,13.62-24.51,20.42-40.66,20.42s-29.62-6.81-40.57-20.42c-10.95-13.62-16.43-29.69-16.43-48.23s5.48-34.71,16.43-48.33c10.95-13.61,24.48-20.42,40.57-20.42M400.18,139.93c6.73,0,12.71-2.71,17.94-8.12,5.23-5.42,7.85-12.5,7.85-21.25s-2.62-15.83-7.85-21.25c-5.23-5.42-11.21-8.12-17.94-8.12s-12.64,2.71-17.9,8.12c-5.26,5.42-7.89,12.5-7.89,21.25s2.63,15.83,7.89,21.25c5.26,5.42,11.23,8.12,17.9,8.12M400.18,37.26c-17.29,0-31.99,7.37-43.69,21.92-11.49,14.28-17.31,31.38-17.31,50.83s5.82,36.46,17.31,50.74c11.7,14.54,26.4,21.91,43.69,21.91s32.08-7.37,43.78-21.91c11.49-14.28,17.31-31.35,17.31-50.74s-5.82-36.55-17.31-50.83c-11.7-14.54-26.43-21.92-43.78-21.92h0ZM400.18,135.93c-5.59,0-10.51-2.26-15.03-6.91-4.55-4.68-6.76-10.72-6.76-18.46s2.21-13.78,6.76-18.46c4.52-4.65,9.44-6.91,15.03-6.91s10.58,2.26,15.07,6.9c4.52,4.68,6.72,10.73,6.72,18.47s-2.2,13.79-6.72,18.47c-4.49,4.64-9.42,6.9-15.07,6.9h0Z"/><path class="cls-3" d="M495.03,181.81c-.29,0-.59,0-.88-.03-24.23-1.56-36.17-16.66-35.48-44.89.6-24.6,4.2-55.58,10.69-92.06,1.29-7.25,7.58-12.52,14.95-12.52,1.06,0,2.12.11,3.16.33l14.96,3.16c4.07.86,7.53,3.28,9.74,6.81,2.21,3.54,2.87,7.71,1.86,11.76-8,31.97-12.85,55.49-14.44,69.91-.35,3.21.63,6.29,2.77,8.67,2.14,2.39,5.17,3.75,8.33,3.75.95,0,1.91-.12,2.86-.37,1.26-.33,2.55-.49,3.84-.49,7.84,0,14.49,6.13,15.13,13.96l.96,11.63c.62,7.52-4.47,14.43-11.84,16.08-6.24,1.4-14.51,2.79-24.56,4.12-.7.09-1.39.14-2.05.14Z"/><path class="cls-2" d="M484.31,34.32c.91,0,1.83.09,2.75.29l14.96,3.16c7.32,1.55,11.89,8.87,10.07,16.13-8.06,32.21-12.88,55.6-14.49,70.18-.88,8.03,5.5,14.65,13.09,14.65,1.1,0,2.23-.14,3.36-.43,1.12-.29,2.24-.43,3.34-.43,6.68,0,12.56,5.11,13.14,12.13l.96,11.63c.54,6.57-3.85,12.53-10.28,13.97-6.21,1.39-14.34,2.76-24.39,4.09-.59.08-1.19.12-1.78.12-.25,0-.5,0-.75-.02-23.07-1.49-34.27-15.77-33.61-42.84.6-24.62,4.15-55.21,10.66-91.76,1.14-6.4,6.73-10.87,12.98-10.87M484.31,30.32c-8.34,0-15.45,5.96-16.92,14.17-6.51,36.59-10.12,67.66-10.72,92.36-.35,14.43,2.59,25.73,8.76,33.58,6.31,8.04,15.93,12.53,28.59,13.35.33.02.67.03,1.01.03.75,0,1.53-.05,2.31-.16,10.12-1.35,18.44-2.74,24.74-4.15,8.33-1.87,14.09-9.69,13.39-18.2l-.96-11.63c-.73-8.86-8.25-15.8-17.13-15.8-1.46,0-2.92.19-4.35.56-.78.2-1.57.31-2.36.31-2.59,0-5.08-1.13-6.84-3.09-1.76-1.96-2.56-4.49-2.27-7.12,1.57-14.33,6.42-37.76,14.39-69.65,1.15-4.58.4-9.31-2.1-13.31-2.5-4-6.41-6.73-11.02-7.71l-14.96-3.16c-1.18-.25-2.38-.38-3.58-.38h0Z"/><path class="cls-3" d="M568.88,183.87c-8.89,0-16.11-3.15-21.44-9.37-5.25-6.13-7.92-12.57-7.92-19.15s2.68-13.1,7.97-19.17c5.36-6.15,12.55-9.27,21.38-9.27s15.93,3.1,21.33,9.21c5.33,6.04,8.03,12.51,8.03,19.22s-2.7,13.03-8.02,19.16c-5.39,6.21-12.57,9.36-21.34,9.36Z"/><path class="cls-2" d="M568.88,128.91c8.2,0,14.81,2.85,19.83,8.54,5.02,5.69,7.53,11.66,7.53,17.9s-2.51,12.07-7.53,17.85c-5.02,5.78-11.63,8.67-19.83,8.67s-14.96-2.89-19.92-8.67c-4.96-5.78-7.43-11.73-7.43-17.85s2.49-12.13,7.48-17.85c4.99-5.72,11.61-8.58,19.87-8.58M568.88,124.91c-9.43,0-17.13,3.35-22.89,9.95-5.62,6.44-8.47,13.33-8.47,20.48s2.83,13.96,8.4,20.46c5.73,6.68,13.45,10.07,22.95,10.07s17.06-3.38,22.85-10.05c5.64-6.51,8.51-13.39,8.51-20.47s-2.87-14.13-8.53-20.54c-5.79-6.56-13.47-9.89-22.83-9.89h0Z"/><path class="cls-3" d="M634.7,208.51c-8.07,0-15.22-5.42-17.4-13.17-9.14-32.58-13.57-64.97-13.15-96.28,0-20.2,5.87-37.32,17.46-50.88,8.85-10.36,25.9-16.69,50.65-18.79.53-.04,1.06-.07,1.58-.07,6.06,0,11.67,3.06,15.01,8.19,3.35,5.14,3.88,11.56,1.4,17.17l-2.68,6.09c-2.88,6.55-9.45,10.78-16.73,10.78h-.39c-.36-.01-.72-.02-1.07-.02-12.54,0-20.51,4.64-24.38,14.17-1.78,4.39-1.28,9.17,1.38,13.11,2.62,3.88,6.93,6.2,11.54,6.2h0c.4,0,.8-.02,1.21-.05l.38-.03c.49-.04.96-.06,1.43-.06,9.06,0,16.75,6.79,17.9,15.79l.75,5.88c.62,4.91-.81,9.93-3.94,13.77-3.12,3.83-7.53,6.14-12.41,6.52-.72.06-1.42.12-2.1.2-4.12.46-7.8,2.7-10.11,6.16-2.3,3.43-2.96,7.66-1.83,11.61,1.5,5.23,3.59,10.74,6.21,16.38,2.06,4.44,2.21,9.42.42,14.01-1.81,4.65-5.35,8.27-9.97,10.19l-4.23,1.76c-2.22.92-4.55,1.39-6.93,1.39Z"/><path class="cls-2" d="M673.84,31.31c11.38,0,19.3,11.86,14.59,22.56l-2.68,6.09c-2.6,5.9-8.47,9.59-14.9,9.59-.12,0-.23,0-.35,0-.37,0-.75-.01-1.11-.01-13.32,0-22.06,5.14-26.23,15.42-4.3,10.6,3.62,22.06,14.77,22.06.45,0,.91-.02,1.38-.06.13-.01.25-.02.38-.03.42-.03.85-.05,1.27-.05,8.01,0,14.88,5.97,15.91,14.04l.75,5.88c1.15,9.04-5.43,17.34-14.52,18.04-.74.06-1.47.13-2.17.2-9.83,1.1-16.37,10.8-13.64,20.3,1.54,5.36,3.65,10.91,6.31,16.67,3.83,8.25-.1,18.03-8.5,21.52l-4.23,1.76c-2.02.84-4.11,1.24-6.16,1.24-6.96,0-13.46-4.55-15.47-11.71-9.14-32.55-13.5-64.45-13.08-95.71,0-19.83,5.66-36.36,16.98-49.61,8.54-10,24.97-16.03,49.3-18.1.48-.04.95-.06,1.41-.06M673.84,27.31c-.58,0-1.17.03-1.75.07-25.65,2.18-42.66,8.56-52,19.49-11.9,13.92-17.93,31.48-17.94,52.18-.42,31.49,4.03,64.07,13.23,96.82,2.42,8.62,10.37,14.63,19.33,14.63,2.64,0,5.23-.52,7.7-1.54l4.23-1.76c5.05-2.1,9.08-6.22,11.06-11.31,1.99-5.1,1.82-10.64-.47-15.58-2.57-5.54-4.62-10.95-6.1-16.09-.97-3.38-.4-7,1.57-9.94,1.98-2.96,5.14-4.89,8.67-5.28.66-.07,1.34-.14,2.04-.19,5.44-.42,10.34-2.99,13.81-7.25,3.47-4.26,5.06-9.83,4.37-15.28l-.75-5.88c-1.27-10-9.82-17.54-19.88-17.54-.52,0-1.06.02-1.58.06l-.4.03c-.35.03-.7.04-1.04.04-3.94,0-7.64-1.99-9.88-5.32-2.28-3.38-2.71-7.48-1.18-11.24,3.52-8.7,10.89-12.92,22.52-12.92.34,0,.68,0,1.03.01.15,0,.29,0,.44,0,8.07,0,15.36-4.7,18.56-11.97l2.68-6.09c2.75-6.24,2.16-13.37-1.56-19.07-3.72-5.7-9.95-9.1-16.69-9.1h0Z"/><path class="cls-3" d="M722.64,203.09c-7.94,0-14.9-5.04-17.33-12.54-10.92-33.71-14.52-68.72-10.71-104.05,1-9.25,8.79-16.22,18.13-16.22.93,0,1.87.07,2.79.21,9.43,1.44,16.21,10.06,15.43,19.62-2.52,30.91,1.84,59.74,12.97,85.67,1.97,4.59,2.01,9.64.11,14.22-1.89,4.57-5.47,8.1-10.08,9.95l-4.5,1.8c-2.19.88-4.48,1.32-6.82,1.32ZM729.6,64.46c-8.77,0-15.95-3.15-21.34-9.36-5.32-6.13-8.02-12.58-8.02-19.16s2.7-13.18,8.03-19.22c5.39-6.11,12.56-9.21,21.33-9.21s16.02,3.12,21.38,9.27c5.29,6.07,7.97,12.52,7.97,19.17s-2.68,13.03-7.97,19.16c-5.36,6.22-12.56,9.37-21.39,9.37Z"/><path class="cls-2" d="M729.6,9.5c8.26,0,14.88,2.86,19.87,8.58,4.99,5.72,7.48,11.67,7.48,17.85s-2.49,12.07-7.48,17.85c-4.99,5.78-11.61,8.67-19.87,8.67s-14.81-2.89-19.83-8.67c-5.02-5.78-7.53-11.73-7.53-17.85s2.51-12.21,7.53-17.9c5.02-5.69,11.63-8.54,19.83-8.54M712.74,72.29c.82,0,1.65.06,2.49.19,8.47,1.3,14.43,8.94,13.74,17.48-2.56,31.39,1.82,60.26,13.12,86.62,3.62,8.43-.36,18.11-8.87,21.53l-4.5,1.81c-1.99.8-4.05,1.18-6.08,1.18-6.8,0-13.2-4.28-15.43-11.15-10.88-33.6-14.42-68-10.62-103.22.9-8.34,8.01-14.44,16.14-14.44M729.6,5.5c-9.36,0-17.04,3.33-22.83,9.89-5.66,6.42-8.53,13.33-8.53,20.54s2.86,13.97,8.51,20.47c5.79,6.67,13.47,10.05,22.85,10.05s17.14-3.39,22.9-10.06c5.61-6.5,8.45-13.39,8.45-20.47s-2.85-14.03-8.46-20.48c-5.76-6.61-13.46-9.95-22.89-9.95h0ZM712.74,68.29h0c-10.36,0-19.01,7.74-20.12,18.01-3.84,35.61-.21,70.9,10.79,104.88,2.7,8.33,10.43,13.92,19.23,13.92,2.6,0,5.14-.49,7.57-1.47l4.5-1.81c5.11-2.05,9.08-5.98,11.18-11.04,2.1-5.08,2.06-10.69-.12-15.77-10.99-25.64-15.3-54.14-12.81-84.72.86-10.6-6.66-20.15-17.12-21.76-1.02-.16-2.06-.24-3.09-.24h0Z"/><path class="cls-3" d="M784.52,181.81c-.29,0-.57,0-.86-.03-24.25-1.55-36.19-16.66-35.5-44.89.6-24.64,4.21-55.65,10.72-92.19,1.28-7.19,7.51-12.41,14.82-12.41,1.05,0,2.1.11,3.13.33l15.22,3.22c4.04.85,7.47,3.25,9.66,6.75,2.19,3.51,2.85,7.65,1.84,11.66-8.05,32.17-12.92,55.79-14.49,70.22-.35,3.18.63,6.23,2.75,8.6,2.11,2.35,5.1,3.7,8.21,3.7.94,0,1.89-.12,2.82-.36l.34-.09c1.25-.33,2.53-.49,3.81-.49,7.77,0,14.36,6.08,15,13.84l.98,11.9c.61,7.45-4.43,14.3-11.74,15.95-6.26,1.41-14.57,2.8-24.7,4.15-.69.09-1.37.14-2.02.14Z"/><path class="cls-2" d="M773.7,34.29c.9,0,1.81.09,2.72.29l15.22,3.22c7.25,1.53,11.77,8.78,9.97,15.97-8.11,32.4-12.95,55.9-14.54,70.49-.86,7.95,5.44,14.51,12.96,14.51,1.09,0,2.2-.14,3.33-.43.11-.03.23-.06.34-.09,1.11-.29,2.22-.43,3.3-.43,6.61,0,12.44,5.06,13.01,12.01l.98,11.9c.53,6.51-3.81,12.4-10.18,13.83-6.23,1.4-14.4,2.77-24.52,4.12-.58.08-1.17.12-1.76.12-.25,0-.49,0-.73-.02-23.08-1.48-34.29-15.76-33.63-42.84.6-24.65,4.16-55.28,10.69-91.89,1.13-6.34,6.66-10.76,12.85-10.76M773.7,30.29c-8.28,0-15.34,5.91-16.79,14.06-6.53,36.64-10.14,67.76-10.75,92.49-.35,14.43,2.59,25.73,8.76,33.59,6.31,8.04,15.94,12.53,28.61,13.34.33.02.66.03.99.03.74,0,1.51-.05,2.28-.15,10.19-1.35,18.55-2.76,24.87-4.18,8.27-1.86,13.98-9.62,13.29-18.06l-.98-11.9c-.72-8.79-8.19-15.68-16.99-15.68-1.45,0-2.9.19-4.31.55l-.19.05-.14.04c-.77.2-1.55.3-2.32.3-2.54,0-4.99-1.11-6.73-3.04-1.74-1.94-2.54-4.44-2.26-7.05,1.56-14.34,6.42-37.87,14.44-69.95,1.14-4.55.4-9.24-2.09-13.21-2.48-3.97-6.36-6.68-10.94-7.65l-15.22-3.22c-1.17-.25-2.36-.37-3.55-.37h0Z"/><path class="cls-3" d="M847.78,200.63c-10.46,0-19.31-7.84-20.59-18.25-5.19-42.2-4.91-74.62.84-96.39,6.85-25.97,17-41.35,30.17-45.72,1.84-.61,3.69-.92,5.51-.92,7.01,0,13.79,4.53,20.14,13.47,3.19,4.49,8.37,7.17,13.84,7.17,4.26,0,8.3-1.62,11.36-4.57,7.04-6.77,13.87-10.2,20.3-10.2,11.29,0,20.36,7.21,26.96,21.44,6.34,13.67,10.28,29.22,11.7,46.2.88,10.59.36,22.34-1.55,34.93-1.55,10.21-10.18,17.63-20.52,17.63-2.93,0-5.79-.62-8.5-1.84-9.03-4.06-13.94-14.03-11.67-23.69,4.17-17.76,5.06-30.48,2.65-37.8-1.09-3.32-2.41-5.29-3.53-5.29-.62,0-2.97.59-7.29,8.18-6.81,11.97-15.59,18.04-26.11,18.04s-18.65-5.32-23.13-15.81c-1.72-4.02-2.83-5.15-3.23-5.45-.38.41-1.39,1.98-2.42,7.38-1.82,9.57.61,31.84,7.21,66.18,1.92,10-3.86,20.1-13.46,23.49l-1.78.63c-2.24.79-4.57,1.19-6.91,1.19Z"/><path class="cls-2" d="M863.72,41.36c6.36,0,12.53,4.21,18.51,12.63,3.73,5.25,9.59,8.01,15.47,8.01,4.57,0,9.15-1.67,12.75-5.13,6.68-6.43,12.99-9.64,18.92-9.64,10.49,0,18.88,6.76,25.15,20.28,6.27,13.52,10.11,28.7,11.52,45.53.88,10.48.36,21.97-1.54,34.46-1.45,9.52-9.65,15.93-18.54,15.93-2.55,0-5.16-.53-7.68-1.66h0c-8.19-3.68-12.6-12.67-10.55-21.41,4.27-18.21,5.14-31.17,2.6-38.88-1.46-4.45-3.27-6.67-5.43-6.67-2.53,0-5.54,3.06-9.03,9.19-6.46,11.35-14.58,17.03-24.37,17.03s-17.13-4.86-21.29-14.59c-1.93-4.5-3.64-6.75-5.13-6.76-1.73,0-3.17,3.03-4.32,9.1-1.87,9.87.53,32.18,7.21,66.93,1.75,9.11-3.42,18.14-12.16,21.22l-1.78.63c-2.08.73-4.19,1.08-6.25,1.08-9.14,0-17.41-6.78-18.6-16.49-5.18-42.14-4.92-74.02.78-95.63,6.7-25.39,16.32-40.17,28.87-44.33,1.64-.54,3.27-.82,4.88-.82M863.72,37.36c-2.04,0-4.1.34-6.14,1.02-14.05,4.66-24.34,20.07-31.48,47.11-5.81,22.01-6.11,54.69-.89,97.14,1.4,11.4,11.11,20,22.57,20,2.57,0,5.12-.44,7.58-1.31l1.78-.63c10.52-3.71,16.87-14.79,14.76-25.75-6.55-34.1-8.98-56.11-7.21-65.43.3-1.56.59-2.76.85-3.67.3.58.63,1.29,1,2.16,4.76,11.14,13.4,17.02,24.97,17.02s20.66-6.41,27.85-19.05c2.89-5.09,4.7-6.6,5.38-7.03.35.41,1.03,1.43,1.8,3.78,2.29,6.97,1.38,19.32-2.7,36.72-2.48,10.59,2.9,21.52,12.8,25.97,2.97,1.34,6.11,2.02,9.32,2.02,11.33,0,20.79-8.13,22.49-19.33,1.94-12.75,2.47-24.65,1.57-35.4-1.44-17.22-5.44-32.99-11.88-46.88-6.96-15-16.64-22.6-28.78-22.6-6.97,0-14.27,3.62-21.69,10.76-2.69,2.59-6.24,4.02-9.98,4.02-4.83,0-9.4-2.37-12.21-6.33-6.75-9.49-14.08-14.31-21.77-14.31h0Z"/><path class="cls-1" d="M484.99,127.97c1.56,5.4,3.25,10.87,6.8,15.33,3.18,3.99,8,6.87,13.2,6.8,3.21-.05,3.22-5.05,0-5-3.79.06-7.33-2.25-9.65-5.32-2.9-3.83-4.21-8.59-5.53-13.13-.89-3.09-5.72-1.77-4.82,1.33h0Z"/><path class="cls-1" d="M674.91,40.8c-6.22-.29-12.46.15-18.59,1.26-5.35.97-11.82,2.09-15.83,6.09-2.28,2.27,1.25,5.81,3.54,3.54,1.61-1.6,3.72-2.36,5.86-2.98,2.7-.79,5.46-1.42,8.23-1.91,5.54-.97,11.18-1.26,16.79-1,3.22.15,3.21-4.85,0-5h0Z"/><path class="cls-1" d="M732.47,22.46c.68-.09,1.36-.11,2.05-.06.1,0,.2.02.31.03.19.02.14.01-.16-.02.09-.03.31.05.4.07.34.07.67.15,1,.25.2.06.39.13.59.2.25.08.18.07-.02-.02.32.14.63.29.93.46s.6.35.88.54c.06.04.61.45.16.1.13.1.26.21.39.32.49.43.95.9,1.37,1.4.08.09.35.48.04.03.09.13.19.26.29.4.19.27.36.55.53.83s.32.57.47.87c.07.15.14.3.21.44.21.43-.09-.25.02.04.24.65.46,1.3.63,1.97.32,1.27,1.81,2.16,3.08,1.75s2.09-1.72,1.75-3.08c-.79-3.14-2.48-6.22-4.99-8.31-2.73-2.28-6.32-3.66-9.91-3.2-1.29.17-2.57,1.03-2.5,2.5.05,1.21,1.11,2.68,2.5,2.5h0Z"/><path class="cls-1" d="M136.77,43.78c9.61-10.48,23.98-13.86,37.68-14.54,3.2-.16,3.22-5.16,0-5-14.98.74-30.71,4.54-41.22,16-2.17,2.37,1.36,5.91,3.54,3.54h0Z"/><path class="cls-1" d="M849.42,66.04c1.11-2.24,2.52-4.32,4.11-6.24,1.46-1.76,3.02-3.5,5.03-4.63,3.26-1.83,7.41-1.07,9.99,1.61,2.23,2.33,5.76-1.21,3.54-3.54-3.85-4.02-9.99-5.16-15.04-2.89-2.59,1.16-4.72,3.19-6.55,5.32-2.07,2.41-3.98,4.99-5.39,7.84-.6,1.21-.32,2.71.9,3.42,1.11.65,2.82.32,3.42-.9h0Z"/><path class="cls-1" d="M306.6,130.31c-2.56,3.56-5.23,7.13-8.65,9.93-3.75,3.06-8.09,3.96-12.79,4.44-1.34.14-2.5,1.05-2.5,2.5,0,1.24,1.15,2.64,2.5,2.5,2.99-.31,6.06-.59,8.92-1.6,2.51-.89,4.75-2.21,6.84-3.84,4-3.14,7.06-7.3,10.01-11.4.79-1.1.19-2.78-.9-3.42-1.26-.74-2.63-.2-3.42.9h0Z"/><path class="cls-1" d="M587.32,144.99c-2.54-5.73-8.37-9.54-14.54-10.04-1.31-.11-2.56,1.23-2.5,2.5.06,1.45,1.1,2.39,2.5,2.5.11,0,.44.08.54.05-.2.07-.46-.07-.04,0,.3.05.59.11.89.17.62.14,1.23.32,1.82.54.14.05.28.11.42.16.29.11-.44-.21-.02,0,.3.14.6.29.89.44.56.3,1.1.64,1.62,1,.06.04.49.34.18.13s.11.09.17.14c.23.19.46.39.68.6.46.43.9.89,1.31,1.38.1.11.2.23.29.35-.35-.54-.02-.02.04.07.17.25.34.5.5.75.35.57.65,1.16.92,1.76.53,1.2,2.37,1.57,3.42.9,1.24-.8,1.46-2.14.9-3.42h0Z"/><path class="cls-1" d="M65.05,158.7c2.64-.87,4.95-2.46,7.04-4.26,1.86-1.59,3.55-3.54,4.63-5.74,2.22-4.51,2.04-10.22-1.62-13.93-2.26-2.29-5.8,1.24-3.54,3.54,1.03,1.04,1.56,2.44,1.63,3.8.09,1.67-.24,3.11-1.07,4.62-.88,1.59-2.05,2.88-3.45,4.09s-3.11,2.47-4.96,3.07c-1.28.42-2.12,1.73-1.75,3.08.34,1.25,1.79,2.17,3.08,1.75h0Z"/><path class="cls-1" d="M427.98,134.76c5.37-6.92,8.16-15.59,7.41-24.36-.11-1.35-1.07-2.5-2.5-2.5-1.26,0-2.61,1.15-2.5,2.5.62,7.37-1.39,14.95-5.95,20.83-.83,1.07-1.04,2.5,0,3.54.86.86,2.7,1.07,3.54,0h0Z"/><path class="cls-1" d="M760.91,159.95c1.42,3.22,4.31,5.79,7.07,7.87,3.07,2.32,6.87,3.12,10.5,4.18,1.25.37,2.78-.44,3.08-1.75s-.4-2.68-1.75-3.08c-3.19-.94-6.41-1.55-9.09-3.51-.04-.03-.33-.26-.14-.11-.14-.11-.28-.23-.42-.35-.28-.23-.55-.47-.82-.72-.57-.51-1.13-1.03-1.66-1.58-1.09-1.11-1.77-1.96-2.45-3.49-.55-1.24-2.35-1.52-3.42-.9-1.27.74-1.44,2.18-.9,3.42h0Z"/></g></svg>